<svg version="1.2" xmlns="http://www.w3.org/2000/svg" viewBox="-18 -54 405 405" width="405" height="405">
	<title>logo-no-background-svg</title>
	<style>
		.s0 { fill: #030303;stroke: #000000;stroke-width: 2.6 } 
		.s1 { fill: #030303 } 
	</style>
	<g id="Layer">
		<g id="Layer">
			<g id="tight-bounds">
				<g id="Layer">
					<g id="Layer">
						<g id="Layer">
							<g id="Layer">
								<g id="Layer">
									<g id="textblocktransform">
										<g id="textblock">
											<g id="Layer">
												<g id="Layer">
													<g id="Layer">
														<g id="Layer">
															<g id="text-0">
															</g>
														</g>
													</g>
												</g>
											</g>
										</g>
									</g>
								</g>
							</g>
							<g id="Layer">
								<g id="Layer">
									<g id="Layer">
										<g id="Layer">
										</g>
									</g>
									<g id="icon-0">
										<g id="Layer">
											<g id="Layer">
												<path id="Layer" fill-rule="evenodd" class="s0" d="m-18 148.2c0-111.7 90.6-202.2 202.3-202.2 111.7 0 202.3 90.5 202.3 202.2 0 111.6-90.6 202.1-202.3 202.1-111.7 0-202.3-90.5-202.3-202.1zm202.3 187.1c103.5 0 187.3-83.8 187.3-187.1 0-103.4-83.8-187.2-187.3-187.2-103.4 0-187.3 83.8-187.3 187.2 0 103.3 83.9 187.1 187.3 187.1z"/>
											</g>
											<g id="Layer">
												<g id="Layer">
													<g id="Layer">
														<g id="cg-0">
															<path id="Layer" fill-rule="evenodd" class="s1" d="m300 132.2q-0.3-0.9-0.4-1.8c-0.4-6.5-1.7-12.1-2.6-15.6-0.1-0.2-0.3-0.7-0.4-1.2-5-19.6-12.6-30.2-12.7-30.3-0.8-1.2-1.3-2.6-1.3-4.1 0-0.8-1.1-9.5-19.4-9.5h-11.8c-8.1 0-14.1 1.8-17.2 5.1-1.7 1.9-4.3 2.7-6.7 2.1-9.7-2.5-21.7-4.8-43.3-5.2-21.4 0.4-33.4 2.7-43.1 5.2-2.4 0.6-5-0.2-6.7-2.1-3.1-3.3-9.1-5.1-17.2-5.1h-11.8c-18.3 0-19.4 8.7-19.4 9.7-0.2 2.1-1.2 4.1-2.8 5.3-2.1 3.7-7.3 13.6-11.2 29-2.2 8.6-2.8 14-3.1 16.6-4 25.9-1.3 72.4 13.8 90 3.6 4.3 7.6 6.3 12.1 6.3 9.5 0 10.5-2.4 14.6-16.8 1-3.5 2.2-7.4 3.6-11.7 7.9-23.2 20.3-24.8 47.4-28.2l3.6-0.5c7.1-0.7 13-1 20.2-1.1 7.4 0.1 13.3 0.4 20.2 1.1l3.7 0.5c27.2 3.4 39.6 5 47.5 28.2 1.4 4.3 2.6 8.2 3.6 11.7 4.1 14.4 5.1 16.8 14.6 16.8 4.5 0 8.5-2 12.1-6.3 14.8-17.2 17.7-62.4 14.1-88.1zm-178.9 29.1c-18.1 0-32.8-14.7-32.8-32.8 0-18.2 14.7-32.9 32.8-32.9 18.2 0 32.9 14.7 32.9 32.9 0 18.1-14.7 32.8-32.9 32.8zm126.4-42c-6.6 0-11.9-5.3-11.9-11.8 0-6.6 5.3-11.9 11.9-11.9 6.5 0 11.8 5.3 11.8 11.9 0 6.5-5.3 11.8-11.8 11.8zm-21.1 21c-6.5 0-11.8-5.3-11.8-11.8 0-6.6 5.3-11.8 11.8-11.8 6.6 0 11.9 5.2 11.9 11.8 0 6.5-5.3 11.8-11.9 11.8zm21.1 21c-6.6 0-11.9-5.3-11.9-11.8 0-6.6 5.3-11.8 11.9-11.8 6.5 0 11.8 5.2 11.8 11.8 0 6.5-5.3 11.8-11.8 11.8zm21-21c-6.5 0-11.8-5.3-11.8-11.8 0-6.6 5.3-11.8 11.8-11.8 6.5 0 11.8 5.2 11.8 11.8 0 6.5-5.3 11.8-11.8 11.8z"/>
															<path id="Layer" fill-rule="evenodd" class="s1" d="m134.8 121.1h-6.3v-6.3c0-4.1-3.3-7.4-7.4-7.4-4 0-7.3 3.3-7.3 7.4v6.3h-6.4c-4 0-7.3 3.3-7.3 7.4 0 4 3.3 7.3 7.3 7.3h6.4v6.4c0 4 3.3 7.3 7.3 7.3 4.1 0 7.4-3.3 7.4-7.3v-6.4h6.3c4.1 0 7.4-3.3 7.4-7.3 0-4.1-3.3-7.4-7.4-7.4z"/>
														</g>
													</g>
												</g>
											</g>
										</g>
									</g>
								</g>
							</g>
						</g>
					</g>
				</g>
			</g>
		</g>
	</g>
</svg>