<svg xmlns="http://www.w3.org/2000/svg" version="1.1" xmlns:xlink="http://www.w3.org/1999/xlink" xmlns:svgjs="http://svgjs.dev/svgjs" width="1500" height="1500" viewBox="0 0 1500 1500"><rect width="1500" height="1500" fill="#000000"></rect><g transform="matrix(0.6666666666666666,0,0,0.6666666666666666,249.39393939393938,614.7703818638273)"><svg viewBox="0 0 396 107" data-background-color="#f9f9f9" preserveAspectRatio="xMidYMid meet" height="405" width="1500" xmlns="http://www.w3.org/2000/svg" xmlns:xlink="http://www.w3.org/1999/xlink"><g id="tight-bounds" transform="matrix(1,0,0,1,0.2400000000000091,0.09099681692771355)"><svg viewBox="0 0 395.52 106.81796517559353" height="106.81796517559353" width="395.52"><g><svg viewBox="0 0 583.7416896386003 157.65093920751957" height="106.81796517559353" width="395.52"><g transform="matrix(1,0,0,1,188.22168963860028,46.451625554512184)"><svg viewBox="0 0 395.52 64.7476880984952" height="64.7476880984952" width="395.52"><g id="textblocktransform"><svg viewBox="0 0 395.52 64.7476880984952" height="64.7476880984952" width="395.52" id="textblock"><g><svg viewBox="0 0 395.52 64.7476880984952" height="64.7476880984952" width="395.52"><g transform="matrix(1,0,0,1,0,0)"><svg width="395.52" viewBox="3.65 -35.35 219.28 35.9" height="64.7476880984952" data-palette-color="#030303"><g class="wordmark-text-0" data-fill-palette-color="primary" id="text-0"><path d="M7.55-35.15L7.55 0 3.65 0 3.65-35.15 7.55-35.15ZM22.7-25.35L12.7-13.3 23 0 18.25 0 8.05-13.3 18-25.35 22.7-25.35ZM46.15-5L46.15-1.3Q43.2 0.25 38.95 0.25L38.95 0.25Q33.2 0.25 29.67-3.28 26.15-6.8 26.15-12.6L26.15-12.6Q26.15-18.65 29.3-22.15 32.45-25.65 37.4-25.65L37.4-25.65Q42.15-25.65 44.95-22.6 47.75-19.55 47.75-13.95L47.75-13.95Q47.75-12.35 47.5-11L47.5-11 30.2-11Q30.65-7.25 33.05-5.25 35.45-3.25 39.35-3.25L39.35-3.25Q43.6-3.25 46.15-5L46.15-5ZM37.4-22.2L37.4-22.2Q34.55-22.2 32.55-20.15 30.55-18.1 30.2-14.3L30.2-14.3 43.8-14.3 43.8-15.3Q43.8-18.45 42.1-20.33 40.4-22.2 37.4-22.2ZM74.09-25.35L65.05 0 60.2 0 51.34-25.35 55.45-25.35 58.95-14.65 62.64-3.1Q63.09-5.25 66.39-14.65L66.39-14.65 70-25.35 74.09-25.35ZM101.29-12.6L101.29-12.6Q101.29-6.95 98.09-3.25 94.89 0.45 89.29 0.45L89.29 0.45Q83.84 0.45 80.67-3.23 77.49-6.9 77.49-12.5L77.49-12.5Q77.49-18.15 80.77-21.93 84.04-25.7 89.29-25.7L89.29-25.7Q95.04-25.7 98.17-22 101.29-18.3 101.29-12.6ZM81.59-12.55L81.59-12.55Q81.59-8.6 83.69-5.83 85.79-3.05 89.29-3.05L89.29-3.05Q93.09-3.05 95.14-5.78 97.19-8.5 97.19-12.55L97.19-12.55Q97.19-16.75 95.24-19.48 93.29-22.2 89.29-22.2L89.29-22.2Q85.69-22.2 83.64-19.4 81.59-16.6 81.59-12.55ZM126.79-25.35L126.79 0 122.84 0 122.84-4.4Q120.84 0.3 114.89 0.3L114.89 0.3Q111.14 0.3 108.97-1.93 106.79-4.15 106.79-7.9L106.79-7.9 106.79-25.35 110.74-25.35 110.74-8.9Q110.74-6.15 112.14-4.7 113.54-3.25 115.94-3.25L115.94-3.25Q119.09-3.25 120.97-5.45 122.84-7.65 122.84-11.4L122.84-11.4 122.84-25.35 126.79-25.35ZM151.54-4.65L151.54-0.9Q149.14 0.55 145.64 0.55L145.64 0.55Q139.64 0.55 136.11-3.28 132.59-7.1 132.59-12.6L132.59-12.6Q132.59-18 136.11-21.9 139.64-25.8 145.74-25.8L145.74-25.8Q148.99-25.8 151.54-24.4L151.54-24.4 151.54-20.65Q149.24-22.2 146.14-22.2L146.14-22.2Q141.84-22.2 139.26-19.43 136.69-16.65 136.69-12.55L136.69-12.55Q136.74-8.45 139.19-5.73 141.64-3 146.14-3L146.14-3Q149.04-3 151.54-4.65L151.54-4.65ZM177.64-17.35L177.64 0 173.69 0 173.69-16.4Q173.69-19.15 172.26-20.65 170.84-22.15 168.54-22.15L168.54-22.15Q165.74-22.15 163.64-20 161.54-17.85 161.54-13.85L161.54-13.85 161.54 0 157.64 0 157.64-35.35 161.54-35.35 161.54-20.95Q163.79-25.7 169.54-25.7L169.54-25.7Q173.19-25.7 175.41-23.45 177.64-21.2 177.64-17.35L177.64-17.35ZM203.13-5L203.13-1.3Q200.18 0.25 195.93 0.25L195.93 0.25Q190.18 0.25 186.66-3.28 183.13-6.8 183.13-12.6L183.13-12.6Q183.13-18.65 186.28-22.15 189.43-25.65 194.38-25.65L194.38-25.65Q199.13-25.65 201.93-22.6 204.73-19.55 204.73-13.95L204.73-13.95Q204.73-12.35 204.48-11L204.48-11 187.18-11Q187.63-7.25 190.03-5.25 192.43-3.25 196.33-3.25L196.33-3.25Q200.58-3.25 203.13-5L203.13-5ZM194.38-22.2L194.38-22.2Q191.53-22.2 189.53-20.15 187.53-18.1 187.18-14.3L187.18-14.3 200.78-14.3 200.78-15.3Q200.78-18.45 199.08-20.33 197.38-22.2 194.38-22.2ZM214.63-13.85L214.63 0 210.68 0 210.73-25.35 214.63-25.35 214.63-20.9Q216.63-25.6 221.53-25.6L221.53-25.6Q222.43-25.6 222.93-25.5L222.93-25.5 222.93-21.6Q221.88-21.95 220.78-21.95L220.78-21.95Q218.13-21.95 216.38-19.5 214.63-17.05 214.63-13.85L214.63-13.85Z" fill="#ffffff" data-fill-palette-color="primary"></path></g></svg></g></svg></g></svg></g></svg></g><g><svg viewBox="0 0 157.65093920751957 157.65093920751957" height="157.65093920751957" width="157.65093920751957"><g><svg></svg></g><g id="icon-0"><svg viewBox="0 0 157.65093920751957 157.65093920751957" height="157.65093920751957" width="157.65093920751957"><g><path d="M0 78.825c0-43.534 35.291-78.825 78.825-78.825 43.534 0 78.825 35.291 78.826 78.825 0 43.534-35.291 78.825-78.826 78.826-43.534 0-78.825-35.291-78.825-78.826zM78.825 151.812c40.309 0 72.986-32.677 72.987-72.987 0-40.309-32.677-72.986-72.987-72.986-40.309 0-72.986 32.677-72.986 72.986 0 40.309 32.677 72.986 72.986 72.987z" data-fill-palette-color="accent" fill="#ffffff" stroke="transparent"></path></g><g transform="matrix(1,0,0,1,33.20931542752712,48.239611605391914)"><svg viewBox="0 0 91.23230835246532 61.17171599673575" height="61.17171599673575" width="91.23230835246532"><g><svg xmlns="http://www.w3.org/2000/svg" xmlns:xlink="http://www.w3.org/1999/xlink" version="1.1" x="0" y="0" viewBox="4.999073832280332 20.56300000000001 90.00082456623676 60.34600000000001" enable-background="new 0 0 100 100" xml:space="preserve" height="61.17171599673575" width="91.23230835246532" class="icon-cg-0" data-fill-palette-color="accent" id="cg-0"><path d="M94.455 44.581c-0.068-0.212-0.112-0.435-0.124-0.66-0.174-2.529-0.657-4.665-1.033-6.007-0.031-0.101-0.085-0.276-0.129-0.458-1.941-7.555-4.847-11.636-4.876-11.676-0.324-0.448-0.503-0.996-0.505-1.55-0.024-0.31-0.435-3.667-7.451-3.667h-4.541c-3.135 0-5.42 0.683-6.606 1.972-0.659 0.714-1.662 1.016-2.593 0.776-3.737-0.938-8.337-1.826-16.643-1.967-8.218 0.141-12.822 1.029-16.56 1.967-0.938 0.239-1.938-0.062-2.593-0.778-1.184-1.288-3.469-1.97-6.602-1.97h-4.548c-7.021 0-7.429 3.352-7.454 3.734-0.046 0.812-0.457 1.55-1.072 2.026-0.808 1.412-2.778 5.218-4.307 11.15-0.828 3.308-1.064 5.381-1.177 6.377-1.538 9.966-0.515 27.87 5.293 34.647 1.394 1.626 2.925 2.412 4.68 2.412 3.635 0 4.001-0.918 5.603-6.455 0.391-1.348 0.825-2.852 1.387-4.497 3.035-8.931 7.791-9.537 18.22-10.863l1.379-0.178c2.703-0.269 4.998-0.403 7.747-0.449 2.847 0.049 5.139 0.181 7.759 0.441l1.455 0.186c10.427 1.326 15.188 1.933 18.223 10.863 0.562 1.646 0.996 3.154 1.39 4.507 1.602 5.527 1.967 6.445 5.603 6.445 1.755 0 3.286-0.786 4.678-2.412C94.753 71.856 95.847 54.482 94.455 44.581zM25.713 55.788c-6.97 0-12.625-5.654-12.625-12.625 0-6.97 5.654-12.625 12.625-12.625 6.973 0 12.622 5.655 12.622 12.625C38.335 50.134 32.686 55.788 25.713 55.788zM74.282 30.537c2.505 0 4.544 2.032 4.544 4.544 0 2.511-2.039 4.543-4.544 4.543-2.507 0-4.548-2.032-4.548-4.543C69.734 32.569 71.775 30.537 74.282 30.537zM66.201 47.706c-2.518 0-4.549-2.03-4.549-4.543 0-2.51 2.031-4.541 4.549-4.541 2.505 0 4.539 2.031 4.539 4.541C70.74 45.676 68.706 47.706 66.201 47.706zM74.282 55.788c-2.507 0-4.548-2.038-4.548-4.547 0-2.507 2.041-4.544 4.548-4.544 2.505 0 4.544 2.037 4.544 4.544C78.826 53.75 76.787 55.788 74.282 55.788zM82.355 47.706c-2.504 0-4.541-2.03-4.541-4.543 0-2.51 2.037-4.541 4.541-4.541 2.518 0 4.551 2.031 4.551 4.541C86.906 45.676 84.873 47.706 82.355 47.706z" fill="#ffffff" data-fill-palette-color="accent"></path><path d="M30.981 40.338h-2.446v-2.445c0-1.56-1.265-2.822-2.822-2.822-1.555 0-2.822 1.262-2.822 2.822v2.445h-2.449c-1.56 0-2.825 1.267-2.825 2.825 0 1.562 1.265 2.822 2.825 2.822h2.449v2.446c0 1.56 1.267 2.824 2.822 2.824 1.558 0 2.822-1.264 2.822-2.824v-2.446h2.446c1.558 0 2.825-1.261 2.825-2.822C33.806 41.605 32.539 40.338 30.981 40.338z" fill="#ffffff" data-fill-palette-color="accent"></path></svg></g></svg></g></svg></g></svg></g></svg></g><defs></defs></svg><rect width="395.52" height="106.81796517559353" fill="none" stroke="none" visibility="hidden"></rect></g></svg></g></svg>